<?xml version="1.0" encoding="UTF-8"?>
<svg width="24px" height="24px" viewBox="0 0 24 24" version="1.1" xmlns="http://www.w3.org/2000/svg" xmlns:xlink="http://www.w3.org/1999/xlink">
    <!-- Generator: Sketch 51.3 (57544) - http://www.bohemiancoding.com/sketch -->
    <title>Group 2</title>
    <desc>Created with Sketch.</desc>
    <defs></defs>
    <g id="Page-1" stroke="none" stroke-width="1" fill="none" fill-rule="evenodd">
        <g id="Artboard" transform="translate(-1498.000000, -67.000000)" fill-rule="nonzero">
            <g id="Group-2" transform="translate(1498.000000, 67.000000)">
                <path d="M17.28,4.8 L1.92,4.8 C0.864,4.8 0.0096,5.664 0.0096,6.72 L0,24 L3.84,20.16 L17.28,20.16 C18.336,20.16 19.2,19.296 19.2,18.24 L19.2,6.72 C19.2,5.664 18.336,4.8 17.28,4.8 Z M3.6,11.4 L15,11.4 L15,13.2 L3.6,13.2 L3.6,11.4 Z M11.4,16.2 L3.6,16.2 L3.6,14.4 L11.4,14.4 L11.4,16.2 Z M15,10.2 L3.6,10.2 L3.6,8.4 L15,8.4 L15,10.2 Z" id="Shape" fill="#C6D6E5"></path>
                <circle id="Oval-2" fill="#0080FF" cx="18.9" cy="5.1" r="5.1"></circle>
                <circle id="Oval-2" fill="#FD5231" cx="18.9" cy="5.1" r="3.3"></circle>
            </g>
        </g>
    </g>
</svg>