<?xml version="1.0" encoding="UTF-8"?>
<svg width="225px" height="33px" viewBox="0 0 225 33" version="1.1" xmlns="http://www.w3.org/2000/svg" xmlns:xlink="http://www.w3.org/1999/xlink">
    <!-- Generator: Sketch 51.3 (57544) - http://www.bohemiancoding.com/sketch -->
    <title>ctct_logo_horiz_white</title>
    <desc>Created with Sketch.</desc>
    <defs></defs>
    <g id="Page-1" stroke="none" stroke-width="1" fill="none" fill-rule="evenodd">
        <g id="Artboard" transform="translate(-910.000000, -1662.000000)" fill="#FFFFFF" fill-rule="nonzero">
            <g id="Group-7" transform="translate(154.000000, 994.000000)">
                <g id="ctct_logo_horiz_white" transform="translate(756.000000, 668.000000)">
                    <path d="M23.617212,13.6654759 C22.5558465,12.5465149 21.0787563,11.9424334 19.5554046,12.0043298 C17.4626826,11.9779026 15.4673522,12.9065874 14.1125826,14.5375776 C12.7300685,16.1749562 11.979099,18.2716539 12.0004428,20.4346462 C12.0004428,23.7569383 14.1938188,25.9994856 17.4432647,25.9994856 C19.5270702,26.0248121 21.5167793,25.113925 22.8860867,23.5077664 C24.2785654,21.8763974 25.0309743,19.7756811 24.9982266,17.6106978 C25.0335122,16.1658351 24.5411702,14.759334 23.617212,13.6654759 Z M17.8494455,23.1755372 C16.4684309,23.1755372 15.5748333,22.0542636 15.5748333,20.3515889 C15.5748333,18.6489141 16.8746117,14.8282781 19.1898419,14.8282781 C21.5050722,14.8282781 21.423836,17.1538827 21.423836,17.6106978 C21.423836,20.2270029 19.8803492,23.1755372 17.8494455,23.1755372 Z" id="Shape"></path>
                    <path d="M11.4843818,22.6708376 L11.4029323,22.5461533 L11.2400332,22.5461533 C10.3549555,22.8184507 9.43588924,22.9584429 8.51147445,22.9617675 C5.45711759,22.9617675 3.74667775,21.0915037 3.74667775,17.8912744 C3.74667775,15.3975893 4.64262243,13.1532727 6.19016323,11.7401844 C7.41561218,10.7073638 8.95844387,10.1481856 10.5477124,10.1608505 C12.1359779,10.1608505 13.2762711,10.4933419 13.7649682,10.7842718 L13.968592,10.7842718 L14.0907663,10.6595875 L14.986711,8.12434098 C15.0210659,8.03202648 14.9870191,7.92778767 14.9052615,7.87497247 C14.2943901,7.45935828 12.7875741,7.00218267 10.9142352,7.00218267 C8.50917406,6.95323308 6.15750572,7.72883691 4.23537484,9.20493787 C1.54754081,11.199886 0,14.4832381 0,18.2237658 C0,20.5512052 0.733045646,22.5461533 2.11768742,23.9176801 C3.5023292,25.289207 5.41639283,25.9957511 7.73770404,25.9957511 C9.33740728,26.0386685 10.9294734,25.7560991 12.4210512,25.1645227 C12.5025007,25.1368151 12.5432255,25.0952537 12.5432255,25.0398384 C12.5802779,24.9695717 12.5631846,24.8823493 12.5025007,24.8320313 C12.0246935,24.1885106 11.6784674,23.4535653 11.4843818,22.6708376 Z" id="Shape"></path>
                    <path d="M34.5576324,12 C32.8678644,12.0057293 31.2726919,12.8175275 30.2242991,14.205274 L30.4267913,12.5513185 C30.424004,12.4729587 30.3953825,12.3980292 30.3457944,12.3392729 L27.5109034,12.3392729 C27.4299065,12.3392729 27.3084112,12.4240911 27.3084112,12.5089094 L27.3084112,12.7633641 C27.1869159,13.8235919 26.9844237,15.1382745 26.7009346,16.6225935 L25,25.7405531 C25,25.807296 25.0300082,25.8701438 25.0809969,25.9101896 C25.1214953,25.9950078 25.1619938,25.9950078 25.2429907,25.9950078 L28.2398754,25.9950078 C28.2936876,26.0074553 28.3500201,25.9963975 28.3958739,25.9643861 C28.4417277,25.9323746 28.4731414,25.8821752 28.482866,25.8253713 L29.576324,19.6760497 C30.0623053,16.7498208 31.7227414,15.0110471 33.05919,15.0110471 C34.3956386,15.0110471 34.4361371,15.5623656 34.4361371,16.7074117 C34.4066374,17.2188452 34.3525711,17.7283993 34.2741433,18.2341398 L32.8971963,25.7405531 C32.8971963,25.8253713 32.8971963,25.8677805 32.9376947,25.9101896 C32.9781931,25.9525987 33.05919,25.9950078 33.1401869,25.9950078 L36.1370717,25.9950078 C36.258567,25.9950078 36.3395639,25.9525987 36.3395639,25.8253713 L37.7570093,18.1069125 C37.9110933,17.3683403 37.9925153,16.6151807 38,15.8592294 C38,13.484319 36.6635514,12 34.5576324,12 Z" id="Shape"></path>
                    <path d="M116.612968,13.6653223 C115.563888,12.548366 114.095294,11.9435413 112.579438,12.0041556 C110.468491,11.9769347 108.454241,12.9046452 107.079169,14.5374349 C105.703831,16.1788775 104.964803,18.2762829 105.001289,20.4345769 C105.001289,23.7569104 107.160654,25.9994855 110.420073,25.9994855 C112.510274,26.0248124 114.506089,25.113914 115.879599,23.5077354 C117.276351,21.876346 118.031069,19.7756036 117.998221,17.6105934 C118.033615,16.1657127 117.539762,14.7591941 116.612968,13.6653223 Z M110.8275,23.175502 C109.442247,23.175502 108.545907,22.0542145 108.545907,20.3515186 C108.545907,18.6488226 109.849675,14.8281391 112.212753,14.8281391 C114.575832,14.8281391 114.412861,17.1537725 114.412861,17.6105934 C114.412861,20.226931 112.864637,23.175502 110.8275,23.175502 Z" id="Shape"></path>
                    <path d="M104.525107,22.6705237 C104.484382,22.6289663 104.484382,22.5874089 104.402932,22.5458514 L104.240033,22.5458514 C103.36892,22.8181888 102.463272,22.958214 101.552199,22.9614259 C98.4978423,22.9614259 96.7466777,21.0913407 96.7466777,17.8914172 C96.7466777,15.3979703 97.6426224,13.1538681 99.230888,11.7409149 C100.456337,10.7081929 101.999169,10.1490681 103.588437,10.1617318 C104.693199,10.1192944 105.793059,10.3323986 106.805693,10.7850936 L106.968592,10.7850936 C107.050042,10.7573886 107.090766,10.7158311 107.090766,10.6604212 L107.986711,8.12541687 C108.021066,8.03311118 107.987019,7.92888233 107.905261,7.87607218 C107.335115,7.4604977 105.828299,7.00336576 103.95496,7.00336576 C101.542146,6.9427251 99.1781349,7.70298013 97.2353748,9.16435307 C94.5475408,11.200668 93,14.4837064 93,18.2238768 C93,20.5510939 93.7330456,22.5458514 95.1176874,23.9172472 C96.5023292,25.288643 98.4571176,25.9951196 100.737704,25.9951196 C102.350887,26.0413469 103.956903,25.7587858 105.461776,25.1639706 L105.58395,25.0392983 C105.596458,24.9672744 105.581918,24.8930855 105.543226,24.8315111 C105.048318,24.1988611 104.70024,23.4600544 104.525107,22.6705237 Z" id="Shape"></path>
                    <path d="M127.517134,12.0000439 C125.824584,11.9931239 124.2244,12.8052167 123.183801,14.1992092 L123.345794,12.5498352 C123.382641,12.4783339 123.365643,12.389579 123.305296,12.338377 L120.470405,12.338377 C120.37265,12.3363183 120.287448,12.4074978 120.267913,12.5075436 L120.267913,12.7612934 C120.105919,13.8185844 119.943925,15.1296253 119.660436,16.6098328 L118,25.7448273 C118,25.8294106 118,25.8717022 118.040498,25.9139939 C118.07295,25.9740214 118.137035,26.0074826 118.202492,25.9985771 L121.239875,25.9985771 C121.361371,25.9985771 121.442368,25.9562855 121.442368,25.8294106 L122.535826,19.6971226 C123.062305,16.7789993 124.722741,15.045042 126.018692,15.045042 C127.314642,15.045042 127.395639,15.5948334 127.395639,16.7367077 C127.386299,17.2483101 127.332075,17.7579417 127.233645,18.2592068 L125.897196,25.7448273 C125.897196,25.8294106 125.897196,25.8717022 125.937695,25.9139939 C125.970147,25.9740214 126.034231,26.0074826 126.099688,25.9985771 L129.137072,25.9985771 C129.218069,25.9985771 129.339564,25.9562855 129.339564,25.8294106 L130.757009,18.1323319 C130.891267,17.3925288 130.972489,16.6432975 131,15.8908749 C130.959502,13.4802513 129.623053,12.0000439 127.517134,12.0000439 Z" id="Shape"></path>
                    <path d="M68.9949466,12.8309668 C69.0075467,12.7757671 68.9963533,12.7179821 68.9639493,12.6709459 C68.9315452,12.6239098 68.8807301,12.5916861 68.8232295,12.5817107 C67.4870186,12.1906258 66.0979991,11.9946031 64.702021,12.000113 C60.9671757,12.000113 58.6919251,13.620278 57.4469767,14.9911868 C55.8658112,16.7549122 54.9967594,19.012286 55.0000091,21.3472186 C55.0000091,24.1305789 56.6742501,26 59.2070762,26 C60.5378831,26 62.3409119,25.5430304 63.8005066,23.3828104 C63.7146481,24.1721216 63.6287896,24.91989 63.6287896,25.5014877 C63.6223657,25.5600462 63.637574,25.6189146 63.6717188,25.6676585 L66.8484838,25.6676585 C66.9670296,25.6676585 67.06313,25.574662 67.06313,25.459945 C67.0531117,23.494574 67.2400127,21.532892 67.6212104,19.6024255 L68.9949466,12.8309668 Z M63.8434358,14.825016 L64.9166672,14.9081014 L64.2297991,18.1068886 C63.6287896,21.3472186 61.8686901,23.0504689 60.4949539,23.0504689 C59.1212177,23.0504689 58.8207129,21.6380174 58.8207129,20.8071636 C58.8207129,17.9822606 60.9671757,14.825016 63.8434358,14.825016 Z" id="Shape"></path>
                    <path d="M76.5107665,12 C74.8192822,12.0118589 73.2236099,12.8199815 72.1695109,14.1986139 L72.3723733,12.5496535 C72.3848346,12.4763755 72.3703485,12.4008948 72.3318009,12.3382483 L69.4511546,12.3382483 C69.3613048,12.3572005 69.2857581,12.4201829 69.2482922,12.5073724 L69.2482922,12.7187776 C69.1265748,13.8180845 68.9237123,15.1287967 68.639705,16.6086329 L67.0168057,25.7413367 C66.9762332,25.8258987 67.0168057,25.8681798 67.0573782,25.9104608 C67.0979506,25.9527418 67.1385231,25.9950229 67.2196681,25.9950229 L70.2220318,25.9950229 C70.2759424,26.0074328 70.3323778,25.9964084 70.3783155,25.9644936 C70.4242531,25.9325789 70.4557242,25.882531 70.4654667,25.8258987 L71.5609237,19.6951485 C72.0477935,16.7777571 73.7112652,15.0442346 75.0501572,15.0442346 C76.3890491,15.0442346 76.4296216,15.593888 76.4296216,16.735476 C76.4202653,17.2469501 76.3659415,17.7564539 76.2673316,18.2575933 L74.8878672,25.7413367 C74.8878672,25.807878 74.9179303,25.870536 74.9690122,25.9104608 C75.0095847,25.9950229 75.0501572,25.9950229 75.1313021,25.9950229 L78.1336658,25.9950229 C78.2553833,25.9950229 78.3365282,25.9527418 78.3365282,25.8258987 L79.7565651,18.1307502 C79.9109308,17.3944086 79.9925016,16.6435236 80,15.8898553 C79.9594275,13.4798363 78.6611081,12 76.5107665,12 Z" id="Shape"></path>
                    <path d="M162.858377,12.499748 C162.013892,12.1553147 161.11201,11.9859612 160.204179,12.0013484 C157.978198,11.9598488 155.836089,12.8778879 154.292555,14.5348797 C152.802961,16.1772386 151.982192,18.3484679 152.000293,20.5987416 C152.000293,23.8798723 154.051265,25.9980706 157.30869,25.9980706 C158.579528,26.0249844 159.841172,25.77005 161.008481,25.2504712 C161.087661,25.2151386 161.136202,25.1315865 161.129127,25.0428047 L161.008481,22.6338733 C161.008481,22.5685087 160.978683,22.5069588 160.928051,22.4677401 L160.726975,22.4677401 C159.912908,22.8781474 159.018872,23.0912259 158.112992,23.0907396 C156.504387,23.0907396 155.579439,22.0108738 155.579439,20.2664752 C155.579439,17.7329438 157.30869,14.991746 160.123749,14.991746 C160.732416,14.9869137 161.335271,15.1142667 161.893214,15.3655457 C161.955427,15.4026418 162.032077,15.4026418 162.09429,15.3655457 L162.214935,15.2409458 L162.979023,12.7904811 C163.005238,12.7359504 163.006964,12.6722853 162.983742,12.6163256 C162.96052,12.560366 162.914691,12.5177493 162.858377,12.499748 Z" id="Shape"></path>
                    <path d="M47.900483,12.6680542 C46.9100821,12.1952698 45.8219213,11.9675171 44.7265148,12.0037408 C43.3245865,11.9552712 41.946627,12.3789649 40.8105801,13.2078087 C39.8354694,14.0122428 39.2746633,15.2183314 39.2854266,16.4878558 C39.2854266,17.8995216 40.1922746,19.1035895 41.92353,20.0585399 C43.6547853,21.0134903 43.5311242,21.2210882 43.5311242,21.8854015 C43.5311242,22.5497149 42.7891577,23.2140282 41.7586485,23.2555478 C40.7202378,23.2052809 39.7061623,22.9215485 38.7907822,22.4251561 C38.7307174,22.3971471 38.6620128,22.3945577 38.6000378,22.417967 C38.5380628,22.4413763 38.4879895,22.4888308 38.4610193,22.5497149 L38.0075953,24.9993703 C37.9791929,25.1020743 38.0326439,25.2097522 38.1312564,25.2484878 C39.1707291,25.7575809 40.3144039,26.0135758 41.470106,25.9958402 C42.9107283,26.0470438 44.3287319,25.6243845 45.5097018,24.7917723 C46.5777625,23.9771833 47.1913921,22.6946592 47.1585164,21.345647 C47.1585164,19.3942266 45.5921425,18.3147174 44.3555315,17.6504041 C43.1189206,16.9860908 42.830378,16.6124145 42.830378,16.0311404 C42.830378,15.4498662 43.5311242,14.7440333 44.5616334,14.7440333 C45.3687327,14.7273584 46.1656179,14.9280258 46.8699738,15.3253075 L47.0348553,15.3253075 L47.1997367,15.2007487 L47.9829237,12.9586912 C48.0235991,12.8541685 47.9898403,12.735155 47.900483,12.6680542 Z" id="Shape"></path>
                    <path d="M54.0289734,23.1441103 C54.0077477,23.0234131 53.8980675,22.935615 53.7706507,22.9373251 L53.5984356,22.9373251 C52.9095751,22.9373251 52.6081986,22.6478258 52.6081986,21.986113 C52.6372802,21.3892774 52.7092074,20.7950814 52.8234675,20.20776 L53.8137045,15.6171276 L55.9233399,15.6171276 C56.0186847,15.5985896 56.0988516,15.5369836 56.1386088,15.4516995 L56.9996844,13.0529907 C57.0023921,12.9817744 56.9876446,12.9109432 56.9566307,12.8462054 L56.7844155,12.7634913 L54.3734037,12.7634913 L55.0622642,9.28949933 C55.0622642,9.20678524 55.0622642,9.12407114 54.9761567,9.0827141 C54.8900491,9.04135705 54.8469953,9 54.7608877,9 L51.4026927,9.9512121 C51.3165851,9.9512121 51.2735313,10.0339262 51.2735313,10.1166403 L50.7138322,12.7634913 L49.0777884,12.7634913 C48.9824436,12.7820294 48.9022767,12.8436354 48.8625195,12.9289195 L48.0014438,15.3276283 C47.9950013,15.3859251 48.0102538,15.4445304 48.0444976,15.4930565 C48.0747087,15.5609951 48.1403568,15.6082908 48.2167128,15.6171276 L50.154133,15.6171276 L49.163896,20.6626875 C48.969601,21.4627991 48.8685212,22.2811822 48.8625195,23.1027533 C48.8625195,24.5088929 49.7666489,25.9977466 52.3068221,25.9977466 C53.0330866,26.0151594 53.758155,25.9315801 54.4595113,25.7496044 C54.5389589,25.7006705 54.5994671,25.6280159 54.6317264,25.5428191 C54.6317264,25.460105 54.6317264,25.418748 54.5886726,25.3773909 C54.2098573,24.689915 54.0173721,23.9218714 54.0289734,23.1441103 Z" id="Shape"></path>
                    <path d="M171.956575,12.7817245 L171.784137,12.6986097 L169.370012,12.6986097 L170.059762,9.20778706 C170.059762,9.12467224 170.059762,9.04155741 169.973543,9 L169.757996,9 L166.438574,9.87270566 C166.343339,9.87270566 166.266136,9.94712921 166.266136,10.0389353 L165.748824,12.6986097 L164.067558,12.6986097 C163.97209,12.7172375 163.891819,12.779142 163.852011,12.8648394 L163.032933,15.2751693 C162.989022,15.322495 162.989022,15.3940733 163.032933,15.4413989 C163.069606,15.5232217 163.156329,15.5733821 163.24848,15.5660712 L165.188402,15.5660712 L164.153777,20.6360755 C163.959231,21.4400635 163.85802,22.2624114 163.852011,23.0879629 C163.852011,24.5009149 164.757308,25.9969817 167.300761,25.9969817 C168.028108,26.0174839 168.754566,25.9334472 169.456231,25.7476373 C169.545128,25.7092618 169.609345,25.6318812 169.628668,25.5398502 L169.930434,23.0879629 C169.939511,23.0207942 169.905403,22.9550337 169.844215,22.9217332 L169.671777,22.8386184 L168.80959,22.9217332 L168.594043,22.9217332 C167.904293,22.9217332 167.645636,22.6308313 167.645636,21.9659127 C167.652815,21.3646506 167.725055,20.7657517 167.861183,20.178944 L168.80959,15.5660712 L170.921949,15.5660712 C171.017417,15.5474434 171.097688,15.4855389 171.137496,15.3998415 L171.999684,12.9895116 C172.002395,12.9179503 171.987629,12.8467759 171.956575,12.7817245 Z" id="Shape"></path>
                    <path d="M151.994947,12.8309668 C152.007547,12.7757671 151.996353,12.7179821 151.963949,12.6709459 C151.931545,12.6239098 151.88073,12.5916861 151.82323,12.5817107 C150.487019,12.1906258 149.097999,11.9946031 147.702021,12.000113 C143.967176,12.000113 141.691925,13.620278 140.446977,14.9911868 C138.865811,16.7549122 137.996759,19.012286 138.000009,21.3472186 C138.000009,24.1305789 139.717179,26 142.207076,26 C143.537883,26 145.340912,25.5430304 146.800507,23.3828104 C146.714648,24.1721216 146.62879,24.91989 146.62879,25.5014877 C146.622366,25.5600462 146.637574,25.6189146 146.671719,25.6676585 L149.848484,25.6676585 C149.96703,25.6676585 150.06313,25.574662 150.06313,25.459945 C150.053112,23.494574 150.240013,21.532892 150.62121,19.6024255 L151.994947,12.8309668 Z M146.843436,14.825016 L147.916667,14.9081014 L147.229799,18.1068886 C146.62879,21.3472186 144.86869,23.0504689 143.494954,23.0504689 C142.121218,23.0504689 141.820713,21.6380174 141.820713,20.8071636 C141.820713,17.9822606 143.967176,14.825016 146.843436,14.825016 Z" id="Shape"></path>
                    <path d="M137.938825,23.1441103 C137.916955,23.0234131 137.803947,22.935615 137.672664,22.9373251 L137.495224,22.9373251 C136.785461,22.9373251 136.47494,22.6478258 136.47494,21.986113 C136.502239,21.3867389 136.591371,20.7912072 136.741101,20.20776 L137.717024,15.6171276 L139.890671,15.6171276 C139.988909,15.5985896 140.071508,15.5369836 140.112472,15.4516995 L140.999675,13.0529907 C141.002465,12.9817744 140.98727,12.9109432 140.955315,12.8462054 L140.777874,12.7634913 L138.293706,12.7634913 L139.003468,9.28949933 C139.003468,9.20678524 139.003468,9.12407114 138.914748,9.0827141 C138.826028,9.04135705 138.781668,9 138.692947,9 L135.232856,9.9512121 C135.15244,9.97052849 135.09715,10.0392585 135.099776,10.1166403 L134.567454,12.7634913 L132.216367,12.7634913 C132.137694,12.7723282 132.070054,12.8196238 132.038926,12.8875625 C131.987025,12.9479988 131.987025,13.0339114 132.038926,13.0943477 C132.404545,13.8012586 132.557846,14.5873315 132.482527,15.3689854 C132.494631,15.43087 132.525407,15.4882552 132.571248,15.5344136 C132.613136,15.5864833 132.678875,15.6171276 132.748688,15.6171276 L133.990772,15.6171276 L132.926129,20.6626875 C132.725939,21.4627991 132.621792,22.2811822 132.615608,23.1027533 C132.615608,24.5088929 133.547171,25.9977466 136.164419,25.9977466 C136.91272,26.0151594 137.659789,25.9315801 138.382426,25.7496044 C138.473903,25.711414 138.539983,25.6344064 138.559867,25.5428191 C138.559867,25.460105 138.559867,25.418748 138.515507,25.3773909 C138.14749,24.6822235 137.950476,23.9192616 137.938825,23.1441103 Z" id="Shape"></path>
                    <path d="M176.999626,8.00000029 C176.999826,9.08999912 176.102182,9.979434 174.981167,10 C174.445806,9.9900875 173.936435,9.77378115 173.565159,9.39868718 C173.193883,9.02359321 172.99113,8.52045267 173.001525,8.00000029 C172.980396,7.47663698 173.1796,6.96750921 173.55317,6.59009807 C173.926739,6.21268693 174.442402,5.99959767 174.981167,6.00000057 C175.52329,5.99990311 176.042664,6.21181303 176.422334,6.58801121 C176.802005,6.96420939 177.010052,7.47306838 176.999626,8.00000029 Z M176.727911,8.03773613 C176.738629,7.12073517 175.982654,6.36891155 175.039392,6.35849109 C174.09613,6.34807062 173.322776,7.08299932 173.312057,8.00000029 C173.331608,8.89450628 174.061737,9.62081453 174.981167,9.66037741 C175.908573,9.64268238 176.667595,8.9375874 176.727911,8.03773613 Z M175.990397,9.05660391 L175.408149,9.05660391 L174.981167,8.15094366 L174.670635,8.15094366 L174.670635,9.05660391 L174.16602,9.05660391 L174.16602,6.86792497 L175.019984,6.86792497 C175.446965,6.86792497 175.990397,6.98113251 175.990397,7.47169847 C175.995749,7.76552226 175.782716,8.02041744 175.485782,8.07547197 L175.990397,9.05660391 Z M175.446965,7.50943432 C175.446965,7.24528341 175.214066,7.16981172 174.903534,7.16981172 L174.709452,7.16981172 L174.709452,7.84905691 L174.903534,7.84905691 C175.214066,7.84905691 175.446965,7.77358522 175.446965,7.50943432 Z" id="Shape"></path>
                    <path d="M89.9553147,12.846236 L89.7778742,12.7635212 L87.2937062,12.7635212 L88.0034685,9.28950163 C88.0034685,9.20678688 88.0034685,9.12407213 87.9147482,9.08271475 C87.8260279,9.04135738 87.7816677,9 87.6929475,9 L84.2772165,9.95121965 C84.1792188,9.95121965 84.0997759,10.025285 84.0997759,10.1166492 L83.5674542,12.7635212 L81.2607268,12.7635212 C81.1659023,12.7562455 81.0766635,12.8061644 81.0389261,12.8875933 C80.9870246,12.9480302 80.9870246,13.0339434 81.0389261,13.0943802 C81.4045451,13.8012967 81.5578456,14.5873758 81.4825275,15.3690359 C81.4946314,15.430921 81.5254075,15.4883067 81.5712478,15.5344654 C81.6131358,15.5865355 81.678875,15.6171802 81.7486884,15.6171802 L82.9907723,15.6171802 L81.9261289,20.66278 L81.7930485,21.324498 C81.6700323,21.9102325 81.6105857,22.5060264 81.6156079,23.1028652 C81.6156079,24.509016 82.5471709,25.9978815 85.1644193,25.9978815 C85.9273032,26.0147134 86.6889223,25.9311764 87.4267866,25.7497373 C87.4945314,25.6964868 87.5413498,25.623738 87.559867,25.5429504 L87.870388,23.1028652 C87.8797291,23.0360199 87.8446313,22.9705759 87.7816677,22.9374357 L87.6042272,22.8547209 L86.7170243,22.9374357 L86.4952236,22.9374357 C85.8298215,22.9374357 85.5193005,22.6479341 85.5193005,21.986216 C85.5266872,21.3878482 85.6010233,20.791832 85.7411012,20.2078489 L86.4952236,16.6511146 L86.7170243,15.6171802 L88.8906713,15.6171802 C88.9889091,15.598642 89.0715085,15.5370355 89.112472,15.4517506 L89.9996749,13.0530228 C90.0024646,12.981806 89.9872697,12.9109742 89.9553147,12.846236 Z" id="Shape"></path>
                    <g id="Group" transform="translate(176.000000, 0.000000)">
                        <path d="M23.4017241,16.9177215 C25.392447,16.409848 27.408718,16.0054959 29.4422414,15.7063291 L32.0612069,15.3721519 C32.6525862,13.2417722 33.3284483,11.1113924 34.1310345,9.02278481 L33.8353448,9.10632911 C31.0607108,9.62555571 28.323288,10.3232399 25.6405172,11.1949367 C24.7958081,13.063428 24.0485622,14.9735319 23.4017241,16.9177215 Z" id="Shape"></path>
                        <path d="M16.262931,14.035443 C17.1208368,12.2701707 18.0798656,10.5547264 19.1353448,8.89746835 C17.5301724,9.77468354 15.9672414,10.7772152 14.4043103,11.7797468 C13.2637931,13.4506329 12.1655172,15.2050633 11.1517241,17.0012658 C12.7991379,15.9151899 14.5310345,14.9544304 16.262931,14.035443 Z" id="Shape"></path>
                        <path d="M22.2189655,17.2101266 C22.8103448,15.3721519 23.5284483,13.4924051 24.3310345,11.6544304 C21.8405855,12.569667 19.4012095,13.6154527 17.0232759,14.7873418 C16.2347701,16.4582278 15.5166667,18.1291139 14.8689655,19.8 C17.2502121,18.7566254 19.7070711,17.8909174 22.2189655,17.2101266 Z" id="Shape"></path>
                        <path d="M33.7086207,8.06202532 L34.5534483,7.93670886 C35.4466036,5.76577502 36.4619861,3.64600127 37.5948276,1.58734177 C34.8530003,2.23041446 32.1576405,3.05376382 29.5267241,4.05189873 C28.3439655,5.93164557 27.2456897,7.93670886 26.2318966,9.94177215 C28.6812488,9.15883574 31.1785464,8.53098227 33.7086207,8.06202532 Z" id="Shape"></path>
                        <path d="M6.63189655,24.2278481 C7.1387931,22.8911392 7.73017241,21.5126582 8.3637931,20.1341772 C7.26551724,20.9139241 6.20948276,21.7493671 5.19568966,22.6405063 C4.26637931,24.1443038 3.37931034,25.6481013 2.61896552,27.1936709 C3.90255446,26.1354864 5.24208581,25.1454837 6.63189655,24.2278481 Z" id="Shape"></path>
                        <path d="M13.5594828,20.3848101 C14.1086207,18.7974684 14.7844828,17.1683544 15.5025862,15.6227848 C13.6569744,16.6136218 11.8662046,17.7012473 10.137931,18.8810127 C9.38445777,20.320991 8.70767102,21.7989597 8.11034483,23.3088608 C9.85704004,22.2122175 11.6776853,21.2352448 13.5594828,20.3848101 Z" id="Shape"></path>
                        <path d="M33.1594828,15.2886076 C36.3627781,15.0037249 39.5848181,14.9897501 42.7905172,15.2468354 C43.5086207,12.6987342 44.3112069,10.3177215 45.1560345,8.06201336 L44.7336207,8.06202532 C41.5765149,8.05995948 38.4250388,8.32548821 35.3137931,8.8556962 C34.469478,10.9566319 33.7501463,13.1046035 33.1594828,15.2886076 Z" id="Shape"></path>
                        <path d="M44.7336207,7.05949367 L45.5362069,7.05949367 C46.4979303,4.62559911 47.6416102,2.2659092 48.9577586,-3.73034936e-14 C45.5882293,0.134542431 42.2377149,0.567927155 38.9465517,1.29493671 C37.7554685,3.37158829 36.6973543,5.52011512 35.7784483,7.7278481 C38.7417798,7.27849371 41.7356556,7.05505076 44.7336207,7.05949367 Z" id="Shape"></path>
                        <path d="M21.5853448,23.8518987 C22.7681034,23.643038 23.9508621,23.4759494 25.1758621,23.3506329 C26.4008621,23.2253165 28.8086207,23.0582278 30.6672414,23.0164557 C30.8897994,20.8064182 31.2709323,18.6148196 31.8077586,16.4582278 L29.5267241,16.7088608 C27.3724138,17.043038 25.1758621,17.5025316 23.0215517,18.0455696 C22.4285343,19.9516083 21.9489766,21.8903746 21.5853448,23.8518987 Z" id="Shape"></path>
                        <path d="M4.85775862,29.7417722 C5.19568966,28.4886076 5.57586207,27.1936709 6.04051724,25.8987342 C4.46936235,26.9996263 2.96048451,28.1849527 1.52068966,29.4493671 C0.971551724,30.6607595 0.464655172,31.8721519 0.0844827586,33 C1.60021795,31.8097417 3.19487987,30.7212289 4.85775862,29.7417722 Z" id="Shape"></path>
                        <path d="M20.487069,24.0189873 C20.825,22.1810127 21.2896552,20.3012658 21.8387931,18.3797468 C19.2840249,19.1235228 16.7855676,20.0448022 14.362069,21.1367089 C13.812931,22.7658228 13.3060345,24.4367089 12.9258621,26.0240506 C15.3935229,25.174494 17.9206518,24.5043558 20.487069,24.0189873 Z" id="Shape"></path>
                    </g>
                </g>
            </g>
        </g>
    </g>
</svg>