<?xml version="1.0" encoding="UTF-8"?>
<svg width="64px" height="27px" viewBox="0 0 64 27" version="1.1" xmlns="http://www.w3.org/2000/svg" xmlns:xlink="http://www.w3.org/1999/xlink">
    <!-- Generator: Sketch 51.3 (57544) - http://www.bohemiancoding.com/sketch -->
    <title>.com copy</title>
    <desc>Created with Sketch.</desc>
    <defs>
        <path d="M3,0 L61,4.4408921e-16 C62.6568542,1.39730022e-16 64,1.34314575 64,3 L64,23.6666667 C64,25.3235209 62.6568542,26.6666667 61,26.6666667 L3,26.6666667 C1.34314575,26.6666667 6.46995335e-16,25.3235209 4.4408921e-16,23.6666667 L4.4408921e-16,3 C2.41183085e-16,1.34314575 1.34314575,7.48448398e-16 3,4.4408921e-16 Z M14.3484878,17.8781699 C14.7480996,17.8781699 15.0894295,17.7359491 15.3724878,17.4515033 C15.6555461,17.1670574 15.7970732,16.8240543 15.7970732,16.4224837 C15.7970732,16.020913 15.6555461,15.6806986 15.3724878,15.4018301 C15.0894295,15.1229616 14.7480996,14.9835294 14.3484878,14.9835294 C13.9488761,14.9835294 13.6075461,15.1229616 13.3244878,15.4018301 C13.0414295,15.6806986 12.8999024,16.020913 12.8999024,16.4224837 C12.8999024,16.8240543 13.0414295,17.1670574 13.3244878,17.4515033 C13.6075461,17.7359491 13.9488761,17.8781699 14.3484878,17.8781699 Z M21.7912195,18.0454902 C22.7236469,18.0454902 23.5284085,17.8391306 24.2055285,17.4264052 C24.8826484,17.0136799 25.4043559,16.4336421 25.7706667,15.6862745 L23.7892683,14.8162092 C23.3785562,15.6193504 22.7125466,16.020915 21.7912195,16.020915 C21.1251999,16.020915 20.578517,15.7922463 20.1511545,15.334902 C19.7237919,14.8775576 19.5101138,14.2696334 19.5101138,13.5111111 C19.5101138,12.7637435 19.7237919,12.1613966 20.1511545,11.7040523 C20.578517,11.246708 21.1251999,11.0180392 21.7912195,11.0180392 C22.7014463,11.0180392 23.3341554,11.3972947 23.6893659,12.155817 L25.6874146,11.3192157 C25.3877058,10.5718481 24.8992988,9.99459899 24.2221789,9.58745098 C23.5450589,9.18030298 22.7347473,8.97673203 21.7912195,8.97673203 C20.9364944,8.97673203 20.1705833,9.17193705 19.4934634,9.56235294 C18.8163435,9.95276884 18.2863109,10.490977 17.9033496,11.1769935 C17.5203883,11.86301 17.3289106,12.6410414 17.3289106,13.5111111 C17.3289106,14.3811808 17.5203883,15.1620009 17.9033496,15.8535948 C18.2863109,16.5451886 18.8163435,17.0833968 19.4934634,17.4682353 C20.1705833,17.8530738 20.9364944,18.0454902 21.7912195,18.0454902 Z M31.3985041,18.0454902 C32.2643295,18.0454902 33.0413407,17.8474965 33.729561,17.4515033 C34.4177812,17.05551 34.9533639,16.5145132 35.3363252,15.8284967 C35.7192865,15.1424802 35.9107642,14.3700261 35.9107642,13.5111111 C35.9107642,12.6633509 35.7192865,11.8936854 35.3363252,11.2020915 C34.9533639,10.5104976 34.4177812,9.96671222 33.729561,9.57071895 C33.0413407,9.17472569 32.2643295,8.97673203 31.3985041,8.97673203 C30.5215783,8.97673203 29.739017,9.17472569 29.0507967,9.57071895 C28.3625765,9.96671222 27.8269938,10.5104976 27.4440325,11.2020915 C27.0610713,11.8936854 26.8695935,12.6633509 26.8695935,13.5111111 C26.8695935,14.3700261 27.0610713,15.1424802 27.4440325,15.8284967 C27.8269938,16.5145132 28.3625765,17.05551 29.0507967,17.4515033 C29.739017,17.8474965 30.5215783,18.0454902 31.3985041,18.0454902 Z M31.3985041,16.020915 C30.9766917,16.020915 30.5881861,15.9205239 30.2329756,15.7197386 C29.8777652,15.5189532 29.591936,15.2261457 29.3754797,14.8413072 C29.1590233,14.4564687 29.0507967,14.0130744 29.0507967,13.5111111 C29.0507967,13.0091478 29.1590233,12.5685422 29.3754797,12.189281 C29.591936,11.8100199 29.8777652,11.520001 30.2329756,11.3192157 C30.5881861,11.1184304 30.9766917,11.0180392 31.3985041,11.0180392 C31.8203165,11.0180392 32.2088221,11.1184304 32.5640325,11.3192157 C32.919243,11.520001 33.202297,11.8100199 33.4132033,12.189281 C33.6241095,12.5685422 33.729561,13.0091478 33.729561,13.5111111 C33.729561,14.0242291 33.6241095,14.470412 33.4132033,14.8496732 C33.202297,15.2289344 32.919243,15.5189532 32.5640325,15.7197386 C32.2088221,15.9205239 31.8203165,16.020915 31.3985041,16.020915 Z M37.5758049,9.24444444 L37.5758049,17.7777778 L39.7570081,17.7777778 L39.7570081,13.4776471 C39.7570081,12.7414342 39.9207355,12.1474532 40.2481951,11.6956863 C40.5756548,11.2439193 41.005786,11.0180392 41.5386016,11.0180392 C42.0159157,11.0180392 42.384996,11.1630487 42.6458537,11.4530719 C42.9067113,11.7430951 43.0371382,12.1558143 43.0371382,12.6912418 L43.0371382,17.7777778 L45.2183415,17.7777778 L45.2183415,13.4776471 C45.2183415,12.7414342 45.3876189,12.1474532 45.7261789,11.6956863 C46.0647388,11.2439193 46.5170703,11.0180392 47.083187,11.0180392 C47.5272001,11.0180392 47.8740801,11.1630487 48.1238374,11.4530719 C48.3735947,11.7430951 48.4984715,12.1558143 48.4984715,12.6912418 L48.4984715,17.7777778 L50.6630244,17.7777778 L50.6630244,12.2896732 C50.6630244,11.2745919 50.4104958,10.468674 49.9054309,9.87189542 C49.400366,9.27511684 48.6649804,8.97673203 47.699252,8.97673203 C47.0443328,8.97673203 46.4754496,9.11616418 45.9925854,9.39503268 C45.5097212,9.67390118 45.1295407,10.0364248 44.8520325,10.4826144 C44.663327,10.0475795 44.3469724,9.68784456 43.9029593,9.40339869 C43.4589463,9.11895283 42.9372388,8.97673203 42.3378211,8.97673203 C41.7828048,8.97673203 41.2805226,9.09664368 40.8309593,9.33647059 C40.3813961,9.5762975 40.023416,9.90256874 39.7570081,10.3152941 L39.6238049,10.3152941 L39.6238049,9.24444444 L37.5758049,9.24444444 Z" id="path-1"></path>
    </defs>
    <g id="Symbols" stroke="none" stroke-width="1" fill="none" fill-rule="evenodd">
        <g id="Domain-Name-Single" transform="translate(-48.000000, -61.000000)">
            <g id="Group-15">
                <g id=".com-copy" transform="translate(48.000000, 61.000000)">
                    <mask id="mask-2" fill="white">
                        <use xlink:href="#path-1"></use>
                    </mask>
                    <use id="Combined-Shape" fill="#5E58AA" xlink:href="#path-1"></use>
                </g>
            </g>
        </g>
    </g>
</svg>