<?xml version="1.0" encoding="utf-8"?>
<!-- Generator: Adobe Illustrator 22.1.0, SVG Export Plug-In . SVG Version: 6.00 Build 0)  -->
<svg version="1.1" id="Layer_1" xmlns="http://www.w3.org/2000/svg" xmlns:xlink="http://www.w3.org/1999/xlink" x="0px" y="0px"
	 viewBox="0 0 57.3 38.6" style="enable-background:new 0 0 57.3 38.6;" xml:space="preserve">
<style type="text/css">
	.st0{fill:#C31E1E;}
	.st1{fill:none;}
</style>
<title>baseline-lock-24px</title>
<desc>Created with Sketch.</desc>
<g id="Artboard" transform="translate(-211.000000, -1156.000000)">
	<g id="baseline-lock-24px" transform="translate(46.000000, 159.000000)">
		<path id="Shape_1_" class="st0" d="M190.7,1010h-1.8v-3.6c0-4.9-4-8.9-9-8.9s-9,4-9,8.9v3.6h-1.8c-2,0-3.6,1.6-3.6,3.6v17.9
			c0,2,1.6,3.6,3.6,3.6h21.6c2,0,3.6-1.6,3.6-3.6v-17.9C194.3,1011.6,192.7,1010,190.7,1010z M179.9,1026.1c-2,0-3.6-1.6-3.6-3.6
			c0-2,1.6-3.6,3.6-3.6s3.6,1.6,3.6,3.6C183.5,1024.5,181.9,1026.1,179.9,1026.1z M185.5,1010h-11.2v-3.6c0-3.1,2.5-5.5,5.6-5.5
			s5.6,2.5,5.6,5.5V1010z"/>
	</g>
</g>
<rect x="0.2" y="0.1" class="st1" width="57" height="38.3"/>
</svg>
