<?xml version="1.0" encoding="UTF-8"?>
<svg width="43px" height="56px" viewBox="0 0 43 56" version="1.1" xmlns="http://www.w3.org/2000/svg" xmlns:xlink="http://www.w3.org/1999/xlink">
    <!-- Generator: Sketch 51.3 (57544) - http://www.bohemiancoding.com/sketch -->
    <title>baseline-lock-24px</title>
    <desc>Created with Sketch.</desc>
    <defs></defs>
    <g id="Page-1" stroke="none" stroke-width="1" fill="none" fill-rule="evenodd">
        <g id="Artboard" transform="translate(-211.000000, -1156.000000)">
            <g id="Group-7" transform="translate(154.000000, 994.000000)">
                <g id="baseline-lock-24px" transform="translate(46.000000, 159.000000)">
                    <polygon id="Shape" points="0 0 64 0 64 64 0 64"></polygon>
                    <path d="M48.625,21.6666667 L45.9375,21.6666667 L45.9375,16.3333333 C45.9375,8.97333333 39.9175,3 32.5,3 C25.0825,3 19.0625,8.97333333 19.0625,16.3333333 L19.0625,21.6666667 L16.375,21.6666667 C13.41875,21.6666667 11,24.0666667 11,27 L11,53.6666667 C11,56.6 13.41875,59 16.375,59 L48.625,59 C51.58125,59 54,56.6 54,53.6666667 L54,27 C54,24.0666667 51.58125,21.6666667 48.625,21.6666667 Z M32.5,45.6666667 C29.54375,45.6666667 27.125,43.2666667 27.125,40.3333333 C27.125,37.4 29.54375,35 32.5,35 C35.45625,35 37.875,37.4 37.875,40.3333333 C37.875,43.2666667 35.45625,45.6666667 32.5,45.6666667 Z M40.83125,21.6666667 L24.16875,21.6666667 L24.16875,16.3333333 C24.16875,11.7733333 27.904375,8.06666667 32.5,8.06666667 C37.095625,8.06666667 40.83125,11.7733333 40.83125,16.3333333 L40.83125,21.6666667 Z" id="Shape" fill="#C31E1E" fill-rule="nonzero"></path>
                </g>
            </g>
        </g>
    </g>
</svg>