<?xml version="1.0" encoding="UTF-8"?>
<svg width="173px" height="30px" viewBox="0 0 173 30" version="1.1" xmlns="http://www.w3.org/2000/svg" xmlns:xlink="http://www.w3.org/1999/xlink">
    <!-- Generator: Sketch 51.3 (57544) - http://www.bohemiancoding.com/sketch -->
    <title>Group 4</title>
    <desc>Created with Sketch.</desc>
    <defs></defs>
    <g id="Page-1" stroke="none" stroke-width="1" fill="none" fill-rule="evenodd">
        <g id="Artboard" transform="translate(-157.000000, -50.000000)" fill="#FFFFFF">
            <g id="Group-4" transform="translate(157.000000, 50.000000)">
                <path d="M26.1868095,19.1395556 C27.7199841,19.9620952 28.1499841,21.9789206 27.1695079,23.4162222 C24.4915714,27.3427302 19.9809365,29.9206667 14.8695079,29.9206667 C9.75839683,29.9206667 5.24792063,27.3430476 2.56998413,23.4168571 C1.58950794,21.9797143 2.01934921,19.9627302 3.55252381,19.1403492 C3.92474603,18.9406667 4.36903175,18.8100317 4.94887302,18.8095556 C7.43109524,18.8095556 7.43109524,21.1924127 9.91125397,21.1905079 C12.3914127,21.1905079 12.3914127,18.8114603 14.8715714,18.8095556 C17.3517302,18.8095556 17.3517302,21.1924127 19.8318889,21.1905079 C22.3099841,21.1905079 22.3099841,18.8114603 24.7901429,18.8095556 C25.3701429,18.8095556 25.8145873,18.939873 26.1868095,19.1395556" id="Fill-1"></path>
                <path d="M13.2165079,15.0407143 C13.2165079,15.9538889 13.9568254,16.6942063 14.87,16.6942063 C15.7830159,16.6942063 16.5233333,15.9538889 16.5233333,15.0407143 C16.5233333,14.1275397 15.7830159,13.3872222 14.87,13.3872222 C13.9568254,13.3872222 13.2165079,14.1275397 13.2165079,15.0407143" id="Fill-4"></path>
                <path d="M29.6294286,13.1825238 C29.6294286,13.3472857 29.4965714,13.4801429 29.3318095,13.4801429 C29.2505397,13.4801429 29.1751429,13.4464921 29.1214921,13.3928413 C28.6691111,12.8809365 28.0084762,12.5595079 27.270381,12.5595079 C25.9013333,12.5595079 24.7902222,13.670619 24.7902222,15.0396667 L19.8299048,15.0396667 C19.8299048,12.3015714 17.6095873,10.0793492 14.8695873,10.0793492 C13.0341905,10.0793492 11.4311746,11.0772857 10.5740317,12.5595079 L7.87673016,12.5595079 C7.56085714,12.5595079 7.258,12.6850635 7.03450794,12.9083968 L4.9032381,15.0396667 L0.59768254,15.0396667 C0.25831746,15.0396667 -0.0134285714,14.7579206 0.000539682539,14.4187143 C0.32784127,6.48807937 6.8595873,0.158714286 14.8695873,0.158714286 C22.4349841,0.158714286 28.6810159,5.80760317 29.6214921,13.1190317 C29.6254603,13.1290317 29.6254603,13.138873 29.6254603,13.148873 C29.6294286,13.1587143 29.6294286,13.170619 29.6294286,13.1825238" id="Fill-6"></path>
                <path d="M26.6506825,15.0407143 C26.6506825,15.3830952 26.9283016,15.6607143 27.2706825,15.6607143 C27.6130635,15.6607143 27.8906825,15.3830952 27.8906825,15.0407143 C27.8906825,14.6981746 27.6130635,14.4207143 27.2706825,14.4207143 C26.9283016,14.4207143 26.6506825,14.6981746 26.6506825,15.0407143" id="Fill-9"></path>
                <polygon id="Fill-11" points="55.5530476 5.53736508 55.5530476 24.5211746 49.716381 24.5211746 49.716381 17.4376825 43.3130476 17.4376825 43.3130476 24.5211746 37.4476508 24.5211746 37.4476508 5.53736508 43.3130476 5.53736508 43.3130476 12.4513333 49.716381 12.4513333 49.716381 5.53736508"></polygon>
                <path d="M64.2219048,20.2147143 C64.9584127,20.2147143 65.5771429,19.9363016 66.0774603,19.3786825 C66.5779365,18.8218571 66.8287302,18.1459841 66.8287302,17.3529683 C66.8287302,16.5410635 66.5779365,15.8558254 66.0774603,15.2988413 C65.5771429,14.7418571 64.9584127,14.4629683 64.2219048,14.4629683 C63.465873,14.4629683 62.8377778,14.7418571 62.3373016,15.2988413 C61.8369841,15.8558254 61.5866667,16.5410635 61.5866667,17.3529683 C61.5866667,18.1459841 61.8369841,18.8218571 62.3373016,19.3786825 C62.8377778,19.9363016 63.465873,20.2147143 64.2219048,20.2147143 M64.2219048,9.75963492 C66.4696825,9.75963492 68.3769841,10.4678889 69.9453968,11.8843968 C71.5131746,13.301381 72.2968254,15.1240794 72.2968254,17.3529683 C72.2968254,19.5818571 71.5131746,21.4045556 69.9453968,22.8215397 C68.3769841,24.2380476 66.4696825,24.9463016 64.2219048,24.9463016 C61.9552381,24.9463016 60.0379365,24.2380476 58.4701587,22.8215397 C56.901746,21.4045556 56.1180952,19.5818571 56.1180952,17.3529683 C56.1180952,15.1240794 56.901746,13.301381 58.4701587,11.8843968 C60.0379365,10.4678889 61.9552381,9.75963492 64.2219048,9.75963492" id="Fill-13"></path>
                <path d="M72.1044603,20.8381587 L77.5165238,19.7613333 C77.7431905,20.5926032 78.3849365,21.0076825 79.442873,21.0076825 C79.8584286,21.0076825 80.1798571,20.9370476 80.4065238,20.7951429 C80.6331905,20.653873 80.7462063,20.4884762 80.7462063,20.2994286 C80.7462063,20.0916508 80.6514444,19.936254 80.4630317,19.8319683 C80.2741429,19.7284762 79.9620794,19.6476825 79.5282698,19.5913333 L76.6663651,19.1095873 C73.7763651,18.6375238 72.331127,17.2016508 72.331127,14.8026032 C72.331127,13.2354603 72.9592222,11.998 74.2155714,11.0913333 C75.4712857,10.1840317 77.0344603,9.73069841 78.9047778,9.73069841 C80.8316032,9.73069841 82.384619,10.0710159 83.5657302,10.7510159 C84.7460476,11.4310159 85.5160476,12.4041905 85.874619,13.6692698 L80.8598571,14.6613333 C80.7839841,14.3592698 80.5762063,14.0708571 80.2363651,13.7970476 C79.8960476,13.5232381 79.471127,13.3860952 78.9612857,13.3860952 C78.5833492,13.3860952 78.2954127,13.4568889 78.097,13.5986349 C77.8985873,13.7405397 77.7996984,13.9059365 77.7996984,14.0943492 C77.7996984,14.4346667 78.0735079,14.6613333 78.6216032,14.7743492 L81.8795397,15.3978413 C84.7506508,15.9459365 86.1866825,17.5041905 86.1866825,20.0727619 C86.1866825,21.6029206 85.5443016,22.798 84.2596984,23.6568889 C82.9750952,24.5170476 81.3414444,24.946254 79.3581111,24.946254 C77.431127,24.946254 75.8204921,24.6065714 74.527,23.9265714 C73.2330317,23.2459365 72.425254,22.2168889 72.1044603,20.8381587" id="Fill-15"></path>
                <path d="M97.0202222,19.6759683 L98.0405397,23.8977143 C96.7176825,24.5966032 95.3294286,24.9462857 93.8753016,24.9462857 C91.9860952,24.9462857 90.5408571,24.4412063 89.5400635,23.430254 C88.5384762,22.4200952 88.0381587,21.0177143 88.0381587,19.2227937 L88.0381587,14.5759683 L86.0835556,14.5759683 L86.0835556,10.1558095 L88.0381587,10.1558095 L88.0381587,5.53739683 L93.7333968,5.53739683 L93.7333968,10.1558095 L97.3033968,10.1558095 L97.3033968,14.5759683 L93.7333968,14.5759683 L93.7333968,18.5145397 C93.7333968,19.5535873 94.272127,20.0727937 95.3483175,20.0727937 C96.0094286,20.0727937 96.5668889,19.9408889 97.0202222,19.6759683" id="Fill-17"></path>
                <path d="M107.485016,13.1312222 L118.082,13.1312222 C118.176127,13.9812222 118.223905,14.6142381 118.223905,15.0293175 C118.223905,17.9575714 117.274222,20.3418571 115.376127,22.1839206 C113.477556,24.0255079 111.036127,24.9463016 108.052,24.9463016 C105.142476,24.9463016 102.682317,23.9877302 100.670571,22.0702698 C98.6589841,20.1534444 97.6534286,17.8063016 97.6534286,15.0293175 C97.6534286,12.2528095 98.6542222,9.90566667 100.656444,7.98884127 C102.658667,6.07122222 105.123746,5.11280952 108.052,5.11280952 C110.336762,5.11280952 112.325492,5.61804762 114.016286,6.62820635 C115.706444,7.639 116.872794,9.02249206 117.515016,10.7793175 L111.451841,12.2245556 C110.828349,10.9777302 109.695016,10.3542381 108.052,10.3542381 C106.729143,10.3542381 105.647556,10.7986825 104.807556,11.6859841 C103.966762,12.5742381 103.546603,13.6886825 103.546603,15.0293175 C103.546603,16.3709048 103.971524,17.4853492 104.821683,18.3726508 C105.671841,19.2609048 106.757397,19.7042381 108.080254,19.7042381 C109.817556,19.7042381 111.073905,19.081381 111.848667,17.8345556 L107.485016,17.8345556 L107.485016,13.1312222 Z" id="Fill-19"></path>
                <path d="M125.172492,20.9229524 C125.701222,20.9229524 126.150429,20.7669206 126.518365,20.4554921 C126.886778,20.1434286 127.071063,19.6954921 127.071063,19.109619 L127.071063,18.5710476 L125.455667,18.5710476 C124.964714,18.5710476 124.572651,18.6799365 124.279952,18.8970794 C123.986778,19.114381 123.840746,19.4116825 123.840746,19.789619 C123.840746,20.1293016 123.963286,20.403746 124.209317,20.6115238 C124.454238,20.8193016 124.775667,20.9229524 125.172492,20.9229524 M125.654079,9.73073016 C127.84519,9.73073016 129.55027,10.2600952 130.768206,11.3180317 C131.986937,12.3758095 132.596302,13.8777143 132.596302,15.8227937 L132.596302,24.5212063 L127.071063,24.5212063 L127.071063,23.5862857 C125.975508,24.4929524 124.596143,24.9462857 122.934238,24.9462857 C121.36646,24.9462857 120.110111,24.5170794 119.165825,23.6569206 C118.220905,22.7980317 117.749317,21.6594603 117.749317,20.2429524 C117.749317,18.7888254 118.306302,17.650254 119.420746,16.8283492 C120.53519,16.0070794 122.112333,15.596127 124.15281,15.596127 L127.071063,15.596127 L127.071063,15.1993016 C127.071063,14.784381 126.938683,14.4488254 126.674238,14.1939048 C126.409317,13.9383492 126.079159,13.8112063 125.682968,13.8112063 C124.794556,13.8112063 124.275349,14.2645397 124.124079,15.1712063 L118.769,14.037873 C119.146937,12.6589841 119.931063,11.5964444 121.120905,10.8499365 C122.310746,10.1040635 123.822016,9.73073016 125.654079,9.73073016" id="Fill-21"></path>
                <path d="M143.731984,19.6962698 L144.752302,23.9180159 C143.429444,24.6169048 142.04119,24.9665873 140.587063,24.9665873 C138.697857,24.9665873 137.252619,24.4613492 136.251825,23.4505556 C135.250238,22.4403968 134.749921,21.0380159 134.749921,19.2429365 L134.749921,14.5962698 L132.795317,14.5962698 L132.795317,10.1761111 L134.749921,10.1761111 L134.749921,5.55753968 L140.445159,5.55753968 L140.445159,10.1761111 L144.015159,10.1761111 L144.015159,14.5962698 L140.445159,14.5962698 L140.445159,18.5346825 C140.445159,19.5738889 140.983889,20.0930952 142.060079,20.0930952 C142.72119,20.0930952 143.278651,19.9611905 143.731984,19.6962698" id="Fill-23"></path>
                <path d="M152.087794,20.2147143 C152.824302,20.2147143 153.443032,19.9363016 153.943349,19.3786825 C154.443825,18.8218571 154.694619,18.1459841 154.694619,17.3529683 C154.694619,16.5410635 154.443825,15.8558254 153.943349,15.2988413 C153.443032,14.7418571 152.824302,14.4629683 152.087794,14.4629683 C151.331921,14.4629683 150.703667,14.7418571 150.20319,15.2988413 C149.702873,15.8558254 149.452714,16.5410635 149.452714,17.3529683 C149.452714,18.1459841 149.702873,18.8218571 150.20319,19.3786825 C150.703667,19.9363016 151.331921,20.2147143 152.087794,20.2147143 M152.087794,9.75963492 C154.335571,9.75963492 156.243032,10.4678889 157.811286,11.8843968 C159.379063,13.301381 160.162714,15.1240794 160.162714,17.3529683 C160.162714,19.5818571 159.379063,21.4045556 157.811286,22.8215397 C156.243032,24.2380476 154.335571,24.9463016 152.087794,24.9463016 C149.821286,24.9463016 147.903825,24.2380476 146.336048,22.8215397 C144.767635,21.4045556 143.983984,19.5818571 143.983984,17.3529683 C143.983984,15.1240794 144.767635,13.301381 146.336048,11.8843968 C147.903825,10.4678889 149.821286,9.75963492 152.087794,9.75963492" id="Fill-25"></path>
                <path d="M170.99646,9.98630159 C171.317254,9.98630159 171.666937,10.0145556 172.044873,10.0710635 L171.84646,16.0212222 L170.99646,16.0212222 C169.504079,16.0212222 168.351857,16.3326508 167.539476,16.9561429 C166.727571,17.5794762 166.321381,18.6751905 166.321381,20.2429683 L166.321381,24.5212222 L160.626143,24.5212222 L160.626143,10.1558254 L166.321381,10.1558254 L166.321381,13.1029683 C167.303444,11.0253492 168.861698,9.98630159 170.99646,9.98630159" id="Fill-27"></path>
            </g>
        </g>
    </g>
</svg>