<?xml version="1.0" encoding="utf-8"?>
<!-- Generator: Adobe Illustrator 22.1.0, SVG Export Plug-In . SVG Version: 6.00 Build 0)  -->
<svg version="1.1" id="Layer_1" xmlns="http://www.w3.org/2000/svg" xmlns:xlink="http://www.w3.org/1999/xlink" x="0px" y="0px"
	 viewBox="0 0 24 24" style="enable-background:new 0 0 24 24;" xml:space="preserve">
<style type="text/css">
	.st0{fill:#FFFFFF;}
</style>
<title>Icons/More</title>
<g id="Icons">
	<g id="Icons_x2F_More">
		<path id="path-1" class="st0" d="M12,15c-1.7,0-3-1.3-3-3s1.3-3,3-3s3,1.3,3,3S13.7,15,12,15z M21,15c-1.7,0-3-1.3-3-3s1.3-3,3-3
			s3,1.3,3,3S22.7,15,21,15z M3,15c-1.7,0-3-1.3-3-3s1.3-3,3-3s3,1.3,3,3S4.7,15,3,15z"/>
	</g>
</g>
</svg>
