<?xml version="1.0" encoding="UTF-8"?>
<svg width="170px" height="72px" viewBox="0 0 170 72" version="1.1" xmlns="http://www.w3.org/2000/svg" xmlns:xlink="http://www.w3.org/1999/xlink">
    <!-- Generator: Sketch 51.3 (57544) - http://www.bohemiancoding.com/sketch -->
    <title>Group 16</title>
    <desc>Created with Sketch.</desc>
    <defs></defs>
    <g id="Page-1" stroke="none" stroke-width="1" fill="none" fill-rule="evenodd">
        <g id="Artboard" transform="translate(-558.000000, -1643.000000)">
            <g id="Group-7" transform="translate(154.000000, 994.000000)">
                <g id="Group-16" transform="translate(404.000000, 649.000000)">
                    <ellipse id="Oval-4" fill="#F5A623" cx="22" cy="49.5" rx="22" ry="22.5"></ellipse>
                    <ellipse id="Oval-4-Copy-2" fill="#F56823" cx="52" cy="22.5" rx="22" ry="22.5"></ellipse>
                    <g id="round-pie_chart-24px" transform="translate(40.000000, 11.000000)">
                        <polygon id="Shape" points="0 0 24 0 24 24 0 24"></polygon>
                        <path d="M11,3.18 L11,20.82 C11,21.46 10.41,21.94 9.79,21.8 C5.32,20.8 2,16.79 2,12 C2,7.21 5.32,3.2 9.79,2.2 C10.41,2.06 11,2.54 11,3.18 Z M13.03,3.18 L13.03,9.99 C13.03,10.54 13.48,10.99 14.03,10.99 L20.82,10.99 C21.46,10.99 21.94,10.4 21.8,9.77 C20.95,6.01 18,3.05 14.25,2.2 C13.62,2.06 13.03,2.54 13.03,3.18 Z M13.03,14.01 L13.03,20.82 C13.03,21.46 13.62,21.94 14.25,21.8 C18.01,20.95 20.96,17.98 21.81,14.22 C21.95,13.6 21.46,13 20.83,13 L14.04,13 C13.48,13.01 13.03,13.46 13.03,14.01 Z" id="Shape" fill="#FFFFFF" fill-rule="nonzero"></path>
                    </g>
                    <g id="round-assessment-24px" transform="translate(10.000000, 38.000000)">
                        <polygon id="Shape" points="0 0 24 0 24 24 0 24"></polygon>
                        <path d="M19,3 L5,3 C3.9,3 3,3.9 3,5 L3,19 C3,20.1 3.9,21 5,21 L19,21 C20.1,21 21,20.1 21,19 L21,5 C21,3.9 20.1,3 19,3 Z M8,17 C7.45,17 7,16.55 7,16 L7,11 C7,10.45 7.45,10 8,10 C8.55,10 9,10.45 9,11 L9,16 C9,16.55 8.55,17 8,17 Z M12,17 C11.45,17 11,16.55 11,16 L11,8 C11,7.45 11.45,7 12,7 C12.55,7 13,7.45 13,8 L13,16 C13,16.55 12.55,17 12,17 Z M16,17 C15.45,17 15,16.55 15,16 L15,14 C15,13.45 15.45,13 16,13 C16.55,13 17,13.45 17,14 L17,16 C17,16.55 16.55,17 16,17 Z" id="Shape" fill="#FFFFFF" fill-rule="nonzero"></path>
                    </g>
                    <text id="SEO-Tools" font-family="GalanoGrotesqueAlt-ExtraBold, Galano Grotesque Alt" font-size="24" font-weight="600" fill="#FFFFFF">
                        <tspan x="50" y="68">SEO Tools</tspan>
                    </text>
                </g>
            </g>
        </g>
    </g>
</svg>