<?xml version="1.0" encoding="utf-8"?>
<!-- Generator: Adobe Illustrator 22.1.0, SVG Export Plug-In . SVG Version: 6.00 Build 0)  -->
<svg version="1.1" id="Layer_1" xmlns="http://www.w3.org/2000/svg" xmlns:xlink="http://www.w3.org/1999/xlink" x="0px" y="0px"
	 viewBox="0 0 90 39.2" style="enable-background:new 0 0 90 39.2;" xml:space="preserve">
<style type="text/css">
	.st0{fill:#F5A623;}
	.st1{fill:#F56823;}
	.st2{fill:none;}
	.st3{fill:#FFFFFF;}
	.st4{enable-background:new    ;}
</style>
<title>Group 16</title>
<desc>Created with Sketch.</desc>
<g id="Page-1">
	<g id="Artboard" transform="translate(-558.000000, -1643.000000)">
		<g id="Group-7" transform="translate(154.000000, 994.000000)">
			<g id="Group-16" transform="translate(404.000000, 649.000000)">
				<ellipse id="Oval-4" class="st0" cx="12.7" cy="26.9" rx="11.5" ry="11.7"/>
				<ellipse id="Oval-4-Copy-2" class="st1" cx="28.4" cy="12.8" rx="11.5" ry="11.7"/>
				<g id="round-pie_chart-24px" transform="translate(40.000000, 11.000000)">
					<polygon id="Shape" class="st2" points="-17.9,-4.2 -5.4,-4.2 -5.4,8.3 -17.9,8.3 					"/>
					<path id="Shape_1_" class="st3" d="M-12.1-2.6v9.2c0,0.3-0.3,0.6-0.6,0.5c-2.3-0.5-4.1-2.6-4.1-5.1s1.7-4.6,4.1-5.1
						C-12.5-3.1-12.1-2.9-12.1-2.6z M-11.1-2.6V1c0,0.3,0.2,0.5,0.5,0.5H-7c0.3,0,0.6-0.3,0.5-0.6c-0.4-2-2-3.5-3.9-3.9
						C-10.8-3.1-11.1-2.9-11.1-2.6z M-11.1,3.1v3.6c0,0.3,0.3,0.6,0.6,0.5c2-0.4,3.5-2,3.9-4C-6.4,2.9-6.7,2.6-7,2.6h-3.5
						C-10.8,2.6-11.1,2.8-11.1,3.1z"/>
				</g>
				<g id="round-assessment-24px" transform="translate(10.000000, 38.000000)">
					<polygon id="Shape_2_" class="st2" points="-3.5,-17.1 9,-17.1 9,-4.6 -3.5,-4.6 					"/>
					<path id="Shape_3_" class="st3" d="M6.4-15.6h-7.3c-0.6,0-1,0.5-1,1v7.3c0,0.6,0.5,1,1,1h7.3c0.6,0,1-0.5,1-1v-7.3
						C7.4-15.1,7-15.6,6.4-15.6z M0.6-8.3c-0.3,0-0.5-0.2-0.5-0.5v-2.6c0-0.3,0.2-0.5,0.5-0.5s0.5,0.2,0.5,0.5v2.6
						C1.2-8.5,0.9-8.3,0.6-8.3z M2.7-8.3c-0.3,0-0.5-0.2-0.5-0.5V-13c0-0.3,0.2-0.5,0.5-0.5s0.5,0.2,0.5,0.5v4.2
						C3.2-8.5,3-8.3,2.7-8.3z M4.8-8.3c-0.3,0-0.5-0.2-0.5-0.5v-1c0-0.3,0.2-0.5,0.5-0.5c0.3,0,0.5,0.2,0.5,0.5v1
						C5.3-8.5,5.1-8.3,4.8-8.3z"/>
				</g>
				<g class="st4">
					<path class="st3" d="M27.8,33.6l1.8-0.2c0.1,0.6,0.3,1,0.6,1.3s0.8,0.4,1.3,0.4c0.6,0,1-0.1,1.3-0.4c0.3-0.2,0.4-0.5,0.4-0.9
						c0-0.2-0.1-0.4-0.2-0.5c-0.1-0.1-0.3-0.3-0.7-0.4c-0.2-0.1-0.7-0.2-1.4-0.4c-1-0.2-1.7-0.5-2-0.9c-0.6-0.5-0.8-1.1-0.8-1.8
						c0-0.5,0.1-0.9,0.4-1.3s0.6-0.7,1.1-0.9c0.5-0.2,1.1-0.3,1.8-0.3c1.1,0,2,0.2,2.5,0.7c0.6,0.5,0.9,1.2,0.9,2L33,30.2
						c-0.1-0.5-0.2-0.8-0.5-1c-0.3-0.2-0.6-0.3-1.1-0.3c-0.5,0-0.9,0.1-1.2,0.3c-0.2,0.1-0.3,0.3-0.3,0.6c0,0.2,0.1,0.4,0.3,0.5
						c0.2,0.2,0.8,0.4,1.7,0.6s1.5,0.4,2,0.6c0.4,0.2,0.8,0.5,1,0.9c0.2,0.4,0.4,0.9,0.4,1.4c0,0.5-0.1,1-0.4,1.4s-0.7,0.8-1.2,1
						c-0.5,0.2-1.2,0.3-2,0.3c-1.1,0-2-0.3-2.6-0.8C28.3,35.4,27.9,34.6,27.8,33.6z"/>
					<path class="st3" d="M36.6,36.5v-9h6.6v1.5h-4.8v2h4.5v1.5h-4.5V35h5v1.5H36.6z"/>
					<path class="st3" d="M44.6,32.1c0-0.9,0.1-1.7,0.4-2.3c0.2-0.5,0.5-0.9,0.8-1.2c0.4-0.4,0.7-0.6,1.2-0.8
						c0.6-0.2,1.2-0.4,1.9-0.4c1.3,0,2.4,0.4,3.2,1.2c0.8,0.8,1.2,2,1.2,3.4c0,1.4-0.4,2.6-1.2,3.4c-0.8,0.8-1.8,1.2-3.2,1.2
						c-1.3,0-2.4-0.4-3.2-1.2C45,34.6,44.6,33.5,44.6,32.1z M46.4,32c0,1,0.2,1.8,0.7,2.3c0.5,0.5,1.1,0.8,1.8,0.8
						c0.7,0,1.3-0.3,1.8-0.8c0.5-0.5,0.7-1.3,0.7-2.3c0-1-0.2-1.8-0.7-2.3c-0.5-0.5-1-0.8-1.8-0.8s-1.3,0.3-1.8,0.8S46.4,31,46.4,32
						z"/>
					<path class="st3" d="M60.2,36.5v-7.4h-2.7v-1.5h7.1v1.5H62v7.4H60.2z"/>
					<path class="st3" d="M64.5,33.2c0-0.6,0.1-1.1,0.4-1.7s0.7-0.9,1.2-1.2s1.1-0.4,1.7-0.4c1,0,1.8,0.3,2.4,1
						c0.6,0.6,0.9,1.4,0.9,2.4c0,1-0.3,1.8-1,2.4s-1.4,1-2.4,1c-0.6,0-1.2-0.1-1.7-0.4c-0.5-0.3-1-0.7-1.2-1.2
						C64.6,34.6,64.5,33.9,64.5,33.2z M66.2,33.3c0,0.6,0.2,1.1,0.5,1.5c0.3,0.3,0.7,0.5,1.1,0.5c0.4,0,0.8-0.2,1.1-0.5
						c0.3-0.3,0.5-0.8,0.5-1.5c0-0.6-0.2-1.1-0.5-1.5c-0.3-0.3-0.7-0.5-1.1-0.5c-0.4,0-0.8,0.2-1.1,0.5
						C66.4,32.1,66.2,32.6,66.2,33.3z"/>
					<path class="st3" d="M72.1,33.2c0-0.6,0.1-1.1,0.4-1.7s0.7-0.9,1.2-1.2s1.1-0.4,1.7-0.4c1,0,1.8,0.3,2.4,1
						c0.6,0.6,0.9,1.4,0.9,2.4c0,1-0.3,1.8-1,2.4s-1.4,1-2.4,1c-0.6,0-1.2-0.1-1.7-0.4c-0.5-0.3-1-0.7-1.2-1.2
						C72.3,34.6,72.1,33.9,72.1,33.2z M73.9,33.3c0,0.6,0.2,1.1,0.5,1.5c0.3,0.3,0.7,0.5,1.1,0.5c0.4,0,0.8-0.2,1.1-0.5
						c0.3-0.3,0.5-0.8,0.5-1.5c0-0.6-0.2-1.1-0.5-1.5c-0.3-0.3-0.7-0.5-1.1-0.5c-0.4,0-0.8,0.2-1.1,0.5C74,32.1,73.9,32.6,73.9,33.3
						z"/>
					<path class="st3" d="M80.2,36.5v-9h1.7v9H80.2z"/>
					<path class="st3" d="M83,34.7l1.7-0.3c0.1,0.3,0.2,0.6,0.4,0.8c0.2,0.2,0.5,0.3,0.9,0.3c0.4,0,0.8-0.1,1-0.2
						c0.2-0.1,0.2-0.3,0.2-0.5c0-0.1,0-0.2-0.1-0.3c-0.1-0.1-0.3-0.2-0.6-0.2c-1.4-0.3-2.3-0.6-2.6-0.8c-0.5-0.4-0.8-0.8-0.8-1.5
						c0-0.6,0.2-1,0.7-1.4c0.4-0.4,1.1-0.6,2.1-0.6c0.9,0,1.5,0.1,2,0.4c0.4,0.3,0.7,0.7,0.9,1.3l-1.6,0.3c-0.1-0.3-0.2-0.4-0.4-0.6
						s-0.5-0.2-0.8-0.2c-0.5,0-0.8,0.1-1,0.2c-0.1,0.1-0.2,0.2-0.2,0.3c0,0.1,0.1,0.2,0.2,0.3c0.2,0.1,0.7,0.3,1.6,0.5
						c0.9,0.2,1.6,0.5,1.9,0.8c0.4,0.3,0.5,0.7,0.5,1.3c0,0.6-0.2,1.1-0.7,1.5c-0.5,0.4-1.2,0.6-2.2,0.6c-0.9,0-1.6-0.2-2.1-0.5
						C83.5,35.8,83.2,35.3,83,34.7z"/>
				</g>
			</g>
		</g>
	</g>
</g>
</svg>
