<?xml version="1.0" encoding="UTF-8"?>
<svg width="16px" height="16px" viewBox="0 0 16 16" version="1.1" xmlns="http://www.w3.org/2000/svg" xmlns:xlink="http://www.w3.org/1999/xlink">
    <!-- Generator: Sketch 51.3 (57544) - http://www.bohemiancoding.com/sketch -->
    <title>Shape</title>
    <desc>Created with Sketch.</desc>
    <defs></defs>
    <g id="Page-1" stroke="none" stroke-width="1" fill="none" fill-rule="evenodd">
        <g id="Artboard" transform="translate(-764.000000, -372.000000)" fill="#00BB67" fill-rule="nonzero">
            <g id="round-arrow_upward-24px" transform="translate(760.000000, 368.000000)">
                <path d="M13,19 L13,7.83 L17.88,12.71 C18.27,13.1 18.91,13.1 19.3,12.71 C19.69,12.32 19.69,11.69 19.3,11.3 L12.71,4.71 C12.32,4.32 11.69,4.32 11.3,4.71 L4.7,11.29 C4.31,11.68 4.31,12.31 4.7,12.7 C5.09,13.09 5.72,13.09 6.11,12.7 L11,7.83 L11,19 C11,19.55 11.45,20 12,20 C12.55,20 13,19.55 13,19 Z" id="Shape"></path>
            </g>
        </g>
    </g>
</svg>