<?xml version="1.0" encoding="utf-8"?>
<!-- Generator: Adobe Illustrator 22.1.0, SVG Export Plug-In . SVG Version: 6.00 Build 0)  -->
<svg version="1.1" id="Layer_1" xmlns="http://www.w3.org/2000/svg" xmlns:xlink="http://www.w3.org/1999/xlink" x="0px" y="0px"
	 viewBox="0 0 57.2 38.5" style="enable-background:new 0 0 57.2 38.5;" xml:space="preserve">
<style type="text/css">
	.st0{fill:#FFFFFF;}
	.st1{fill:none;}
	.st2{fill:none;stroke:#F80819;stroke-width:0.25;stroke-miterlimit:10;}
</style>
<title>baseline-data_usage-24px</title>
<desc>Created with Sketch.</desc>
<g>
	<path id="Shape_3_" class="st0" d="M21.2,0.6v5.7c6.4,0.9,11.2,6.4,11.2,13c0,1.7-0.3,3.3-0.9,4.8l4.9,2.9c1-2.3,1.6-4.9,1.6-7.6
		C38.1,9.5,30.7,1.5,21.2,0.6z M19.3,32.4c-7.3,0-13.1-5.9-13.1-13.1c0-6.6,4.9-12.1,11.2-13V0.6C8,1.5,0.6,9.5,0.6,19.3
		C0.6,29.6,9,38,19.3,38c6.2,0,11.7-3,15.1-7.7l-4.9-2.9C27.1,30.5,23.5,32.4,19.3,32.4z"/>
	<rect x="0.1" y="0.2" class="st1" width="57" height="38.3"/>
</g>
<g>
	<g id="Page-1_1_">
		<g id="Artboard_1_" transform="translate(-204.000000, -650.000000)">
			<g id="_x31_484701428_x5F_wordpress" transform="translate(204.000000, 650.000000)">
				<path id="Shape_2_" class="st0" d="M-32-120.3c-10.2,0-18.5,8.3-18.5,18.5s8.3,18.5,18.5,18.5s18.5-8.3,18.5-18.5
					S-21.8-120.3-32-120.3z M-48.7-101.8c0-2.4,0.5-4.7,1.4-6.8l8,21.8C-44.8-89.5-48.7-95.2-48.7-101.8z M-32-85.1
					c-1.6,0-3.2-0.2-4.7-0.7l5-14.5l5.1,14c0,0.1,0.1,0.2,0.1,0.2C-28.2-85.4-30-85.1-32-85.1z M-29.7-109.6c1-0.1,1.9-0.2,1.9-0.2
					c0.9-0.1,0.8-1.4-0.1-1.4c0,0-2.7,0.2-4.4,0.2c-1.6,0-4.4-0.2-4.4-0.2c-0.9-0.1-1,1.3-0.1,1.4c0,0,0.9,0.1,1.7,0.2l2.6,7.1
					l-3.6,10.9l-6.1-18.1c1-0.1,1.9-0.2,1.9-0.2c0.9-0.1,0.8-1.4-0.1-1.4c0,0-2.7,0.2-4.4,0.2c-0.3,0-0.7,0-1.1,0
					c3-4.5,8.1-7.5,13.9-7.5c4.3,0,8.3,1.7,11.3,4.4c-0.1,0-0.1,0-0.2,0c-1.6,0-2.8,1.4-2.8,3c0,1.4,0.8,2.5,1.6,3.9
					c0.6,1.1,1.4,2.5,1.4,4.6c0,1.4-0.5,3.1-1.3,5.4l-1.7,5.6L-29.7-109.6z M-17.3-109.8c1.3,2.4,2,5.1,2,8c0,6.2-3.3,11.5-8.3,14.4
					l5.1-14.7c1-2.4,1.3-4.3,1.3-6C-17.2-108.7-17.3-109.2-17.3-109.8z"/>
			</g>
		</g>
	</g>
	<rect x="-51.5" y="-120.9" class="st2" width="57" height="38.3"/>
</g>
</svg>
