<?xml version="1.0" encoding="UTF-8"?>
<svg width="54px" height="54px" viewBox="0 0 54 54" version="1.1" xmlns="http://www.w3.org/2000/svg" xmlns:xlink="http://www.w3.org/1999/xlink">
    <!-- Generator: Sketch 51.3 (57544) - http://www.bohemiancoding.com/sketch -->
    <title>baseline-data_usage-24px</title>
    <desc>Created with Sketch.</desc>
    <defs></defs>
    <g id="Page-1" stroke="none" stroke-width="1" fill="none" fill-rule="evenodd">
        <g id="Artboard" transform="translate(-914.000000, -655.000000)">
            <g id="baseline-data_usage-24px" transform="translate(909.000000, 650.000000)">
                <polygon id="Shape" points="0 0 64 0 64 64 0 64"></polygon>
                <path d="M34.6666667,5.46666667 L34.6666667,13.5466667 C43.7066667,14.8533333 50.6666667,22.5866667 50.6666667,32 C50.6666667,34.4 50.1866667,36.6666667 49.3866667,38.7733333 L56.32,42.8533333 C57.8133333,39.5466667 58.6666667,35.8666667 58.6666667,32 C58.6666667,18.1866667 48.1333333,6.8 34.6666667,5.46666667 Z M32,50.6666667 C21.68,50.6666667 13.3333333,42.32 13.3333333,32 C13.3333333,22.5866667 20.2933333,14.8533333 29.3333333,13.5466667 L29.3333333,5.46666667 C15.84,6.8 5.33333333,18.16 5.33333333,32 C5.33333333,46.72 17.2533333,58.6666667 31.9733333,58.6666667 C40.8,58.6666667 48.6133333,54.3733333 53.4666667,47.76 L46.5333333,43.68 C43.12,47.9466667 37.8933333,50.6666667 32,50.6666667 Z" id="Shape" fill="#FFFFFF" fill-rule="nonzero"></path>
            </g>
        </g>
    </g>
</svg>