<?xml version="1.0" encoding="utf-8"?>
<!-- Generator: Adobe Illustrator 22.1.0, SVG Export Plug-In . SVG Version: 6.00 Build 0)  -->
<svg version="1.1" id="Layer_1" xmlns="http://www.w3.org/2000/svg" xmlns:xlink="http://www.w3.org/1999/xlink" x="0px" y="0px"
	 viewBox="0 0 57.3 38.5" style="enable-background:new 0 0 57.3 38.5;" xml:space="preserve">
<style type="text/css">
	.st0{fill:#FFFFFF;}
	.st1{fill:none;}
</style>
<title>1484701428_wordpress</title>
<desc>Created with Sketch.</desc>
<g>
	<g id="Page-1_1_">
		<g id="Artboard_1_" transform="translate(-204.000000, -650.000000)">
			<g id="_x31_484701428_x5F_wordpress_1_" transform="translate(204.000000, 650.000000)">
				<path id="Shape_1_" class="st0" d="M19.7,0.7C9.4,0.7,1.1,9,1.1,19.3s8.3,18.5,18.5,18.5s18.5-8.3,18.5-18.5S29.9,0.7,19.7,0.7z
					 M3,19.3c0-2.4,0.5-4.7,1.4-6.8l8,21.8C6.8,31.6,3,25.9,3,19.3z M19.7,35.9c-1.6,0-3.2-0.2-4.7-0.7l5-14.5l5.1,14
					c0,0.1,0.1,0.2,0.1,0.2C23.5,35.6,21.6,35.9,19.7,35.9z M22,11.4c1-0.1,1.9-0.2,1.9-0.2c0.9-0.1,0.8-1.4-0.1-1.4
					c0,0-2.7,0.2-4.4,0.2c-1.6,0-4.4-0.2-4.4-0.2c-0.9-0.1-1,1.3-0.1,1.4c0,0,0.9,0.1,1.7,0.2l2.6,7.1l-3.6,10.9L9.5,11.4
					c1-0.1,1.9-0.2,1.9-0.2c0.9-0.1,0.8-1.4-0.1-1.4c0,0-2.7,0.2-4.4,0.2c-0.3,0-0.7,0-1.1,0c3-4.5,8.1-7.5,13.9-7.5
					C24,2.6,28,4.2,30.9,7c-0.1,0-0.1,0-0.2,0c-1.6,0-2.8,1.4-2.8,3c0,1.4,0.8,2.5,1.6,3.9c0.6,1.1,1.4,2.5,1.4,4.6
					c0,1.4-0.5,3.1-1.3,5.4L28,29.4L22,11.4z M34.3,11.2c1.3,2.4,2,5.1,2,8c0,6.2-3.3,11.5-8.3,14.4l5.1-14.7c1-2.4,1.3-4.3,1.3-6
					C34.4,12.4,34.4,11.8,34.3,11.2z"/>
			</g>
		</g>
	</g>
	<rect x="0.1" y="0.1" class="st1" width="57" height="38.3"/>
</g>
</svg>
