<?xml version="1.0" encoding="UTF-8"?>
<svg width="63px" height="63px" viewBox="0 0 63 63" version="1.1" xmlns="http://www.w3.org/2000/svg" xmlns:xlink="http://www.w3.org/1999/xlink">
    <!-- Generator: Sketch 51.3 (57544) - http://www.bohemiancoding.com/sketch -->
    <title>1484701428_wordpress</title>
    <desc>Created with Sketch.</desc>
    <defs></defs>
    <g id="Page-1" stroke="none" stroke-width="1" fill="none" fill-rule="evenodd">
        <g id="Artboard" transform="translate(-204.000000, -650.000000)" fill="#FFFFFF" fill-rule="nonzero">
            <g id="1484701428_wordpress" transform="translate(204.000000, 650.000000)">
                <path d="M31.030303,0 C13.9209697,0 0,13.9209697 0,31.030303 C0,48.1396364 13.9209697,62.0625455 31.030303,62.0625455 C48.1396364,62.0625455 62.0606061,48.1396364 62.0606061,31.030303 C62.0606061,13.9209697 48.1396364,0 31.030303,0 Z M3.13212121,31.030303 C3.13212121,26.9847273 3.9990303,23.1466667 5.54860606,19.6770909 L18.8547879,56.137697 C9.54957576,51.6169697 3.13212121,42.0732121 3.13212121,31.030303 Z M31.030303,58.9304242 C28.2918788,58.9304242 25.6484848,58.5309091 23.1505455,57.7958788 L31.5209697,33.472 L40.0969697,56.9658182 C40.1532121,57.1015758 40.2210909,57.2295758 40.2967273,57.3478788 C37.3953939,58.3718788 34.2807273,58.9304242 31.030303,58.9304242 Z M34.8741818,17.9490909 C36.553697,17.8618182 38.0664242,17.6853333 38.0664242,17.6853333 C39.5694545,17.5069091 39.3929697,15.2979394 37.888,15.3852121 C37.888,15.3852121 33.3711515,15.7401212 30.4523636,15.7401212 C27.7100606,15.7401212 23.104,15.3852121 23.104,15.3852121 C21.6009697,15.296 21.4244848,17.5941818 22.9275152,17.6853333 C22.9275152,17.6853333 24.3510303,17.8618182 25.8540606,17.9490909 L30.2002424,29.8608485 L24.0950303,48.1706667 L13.9384242,17.9490909 C15.6198788,17.8618182 17.1306667,17.6853333 17.1306667,17.6853333 C18.6298182,17.5069091 18.4572121,15.2979394 16.9522424,15.3852121 C16.9522424,15.3852121 12.4334545,15.7401212 9.51466667,15.7401212 C8.9910303,15.7401212 8.37430303,15.7284848 7.71878788,15.7052121 C12.7107879,8.13187879 21.2848485,3.13212121 31.030303,3.13212121 C38.2933333,3.13212121 44.9066667,5.90739394 49.8715152,10.4572121 C49.7512727,10.4475152 49.6329697,10.432 49.5088485,10.432 C46.7684848,10.432 44.8232727,12.8193939 44.8232727,15.3852121 C44.8232727,17.6853333 46.1498182,19.6286061 47.5636364,21.9287273 C48.6244848,23.7847273 49.865697,26.1721212 49.865697,29.6242424 C49.865697,32.009697 48.9464242,34.7810909 47.7420606,38.6424242 L44.9570909,47.9379394 L34.8741818,17.9490909 Z M55.5112727,17.6465455 C57.6892121,21.622303 58.9284848,26.1798788 58.9284848,31.030303 C58.9284848,41.3246061 53.3507879,50.3078788 45.0579394,55.1466667 L53.5796364,30.5086061 C55.1699394,26.5289697 55.7013333,23.3464242 55.7013333,20.5187879 C55.6993939,19.4889697 55.6334545,18.5367273 55.5112727,17.6465455 Z" id="Shape"></path>
            </g>
        </g>
    </g>
</svg>